<mxfile host="app.diagrams.net" modified="2021-09-24T17:28:57.117Z" agent="5.0 (Windows NT 10.0; Win64; x64) AppleWebKit/537.36 (KHTML, like Gecko) Chrome/93.0.4577.82 Safari/537.36" etag="EALTFApwU8fdrL_BZaJr" version="14.9.5" type="github">
  <diagram id="yMZTq3cZELEDjflH1fi8" name="Page-1">
    <mxGraphModel dx="1363" dy="1636" grid="1" gridSize="10" guides="0" tooltips="1" connect="0" arrows="0" fold="1" page="1" pageScale="1" pageWidth="850" pageHeight="1100" math="0" shadow="0">
      <root>
        <mxCell id="0" />
        <mxCell id="1" parent="0" />
        <mxCell id="MUji5N--3h-qAHqWKQlx-39" value="" style="whiteSpace=wrap;html=1;shadow=1;" vertex="1" parent="1">
          <mxGeometry x="195" y="-176.5" width="485" height="216.5" as="geometry" />
        </mxCell>
        <mxCell id="MUji5N--3h-qAHqWKQlx-37" value="" style="whiteSpace=wrap;html=1;shadow=1;" vertex="1" parent="1">
          <mxGeometry x="160" y="-370" width="570" height="440" as="geometry" />
        </mxCell>
        <mxCell id="MUji5N--3h-qAHqWKQlx-38" value="" style="whiteSpace=wrap;html=1;shadow=1;strokeColor=#9673a6;fillColor=#CCCCCC;" vertex="1" parent="1">
          <mxGeometry x="100" y="-420" width="650" height="530" as="geometry" />
        </mxCell>
        <mxCell id="MUji5N--3h-qAHqWKQlx-42" value="" style="whiteSpace=wrap;html=1;shadow=1;strokeColor=#666666;fillColor=#f5f5f5;fontColor=#333333;" vertex="1" parent="1">
          <mxGeometry x="140" y="-390" width="570" height="470" as="geometry" />
        </mxCell>
        <mxCell id="MUji5N--3h-qAHqWKQlx-40" value="" style="whiteSpace=wrap;html=1;shadow=1;strokeColor=#9673a6;fillColor=#e1d5e7;" vertex="1" parent="1">
          <mxGeometry x="180" y="-200" width="490" height="230" as="geometry" />
        </mxCell>
        <mxCell id="MUji5N--3h-qAHqWKQlx-2" value="" style="html=1;outlineConnect=0;fillColor=#CCCCCC;strokeColor=#6881B3;gradientColor=none;gradientDirection=north;strokeWidth=2;shape=mxgraph.networks.cloud;fontColor=#ffffff;" vertex="1" parent="1">
          <mxGeometry x="334" y="-530" width="167" height="90" as="geometry" />
        </mxCell>
        <mxCell id="MUji5N--3h-qAHqWKQlx-3" value="" style="fontColor=#0066CC;verticalAlign=top;verticalLabelPosition=bottom;labelPosition=center;align=center;html=1;outlineConnect=0;fillColor=#CCCCCC;strokeColor=#6881B3;gradientColor=none;gradientDirection=north;strokeWidth=2;shape=mxgraph.networks.firewall;" vertex="1" parent="1">
          <mxGeometry x="360" y="-355" width="115" height="120" as="geometry" />
        </mxCell>
        <mxCell id="MUji5N--3h-qAHqWKQlx-4" value="" style="fontColor=#0066CC;verticalAlign=top;verticalLabelPosition=bottom;labelPosition=center;align=center;html=1;outlineConnect=0;fillColor=#CCCCCC;strokeColor=#6881B3;gradientColor=none;gradientDirection=north;strokeWidth=2;shape=mxgraph.networks.load_balancer;" vertex="1" parent="1">
          <mxGeometry x="171" y="-317.5" width="120" height="35" as="geometry" />
        </mxCell>
        <mxCell id="MUji5N--3h-qAHqWKQlx-5" value="" style="fontColor=#0066CC;verticalAlign=top;verticalLabelPosition=bottom;labelPosition=center;align=center;html=1;outlineConnect=0;fillColor=#CCCCCC;strokeColor=#6881B3;gradientColor=none;gradientDirection=north;strokeWidth=2;shape=mxgraph.networks.server;" vertex="1" parent="1">
          <mxGeometry x="518" y="-160" width="90" height="100" as="geometry" />
        </mxCell>
        <mxCell id="MUji5N--3h-qAHqWKQlx-6" value="" style="fontColor=#0066CC;verticalAlign=top;verticalLabelPosition=bottom;labelPosition=center;align=center;html=1;outlineConnect=0;fillColor=#CCCCCC;strokeColor=#6881B3;gradientColor=none;gradientDirection=north;strokeWidth=2;shape=mxgraph.networks.server;" vertex="1" parent="1">
          <mxGeometry x="370" y="-160" width="90" height="100" as="geometry" />
        </mxCell>
        <mxCell id="MUji5N--3h-qAHqWKQlx-7" value="" style="fontColor=#0066CC;verticalAlign=top;verticalLabelPosition=bottom;labelPosition=center;align=center;html=1;outlineConnect=0;fillColor=#CCCCCC;strokeColor=#6881B3;gradientColor=none;gradientDirection=north;strokeWidth=2;shape=mxgraph.networks.server;" vertex="1" parent="1">
          <mxGeometry x="220" y="-160" width="90" height="100" as="geometry" />
        </mxCell>
        <mxCell id="MUji5N--3h-qAHqWKQlx-8" value="" style="fontColor=#0066CC;verticalAlign=top;verticalLabelPosition=bottom;labelPosition=center;align=center;html=1;outlineConnect=0;fillColor=#CCCCCC;strokeColor=#6881B3;gradientColor=none;gradientDirection=north;strokeWidth=2;shape=mxgraph.networks.proxy_server;" vertex="1" parent="1">
          <mxGeometry x="536" y="-348.5" width="105" height="105" as="geometry" />
        </mxCell>
        <mxCell id="MUji5N--3h-qAHqWKQlx-10" value="" style="fontColor=#0066CC;verticalAlign=top;verticalLabelPosition=bottom;labelPosition=center;align=center;html=1;outlineConnect=0;fillColor=#CCCCCC;strokeColor=#6881B3;gradientColor=none;gradientDirection=north;strokeWidth=2;shape=mxgraph.networks.laptop;" vertex="1" parent="1">
          <mxGeometry x="150" y="-530" width="140" height="90" as="geometry" />
        </mxCell>
        <mxCell id="MUji5N--3h-qAHqWKQlx-11" value="Workstation" style="text;html=1;strokeColor=none;fillColor=none;align=center;verticalAlign=middle;whiteSpace=wrap;rounded=0;" vertex="1" parent="1">
          <mxGeometry x="180" y="-500" width="80" height="20" as="geometry" />
        </mxCell>
        <mxCell id="MUji5N--3h-qAHqWKQlx-12" value="Load Balancer" style="text;html=1;strokeColor=none;fillColor=none;align=center;verticalAlign=middle;whiteSpace=wrap;rounded=0;" vertex="1" parent="1">
          <mxGeometry x="173" y="-282" width="90" height="20" as="geometry" />
        </mxCell>
        <mxCell id="MUji5N--3h-qAHqWKQlx-13" value="Internet" style="text;html=1;strokeColor=none;fillColor=none;align=center;verticalAlign=middle;whiteSpace=wrap;rounded=0;" vertex="1" parent="1">
          <mxGeometry x="370" y="-480" width="90" height="20" as="geometry" />
        </mxCell>
        <mxCell id="MUji5N--3h-qAHqWKQlx-14" value="Web-2&lt;br&gt;10.0.0.6" style="text;html=1;strokeColor=none;fillColor=none;align=center;verticalAlign=middle;whiteSpace=wrap;rounded=0;" vertex="1" parent="1">
          <mxGeometry x="372.5" y="-50" width="90" height="20" as="geometry" />
        </mxCell>
        <mxCell id="MUji5N--3h-qAHqWKQlx-15" value="Web-3&lt;br&gt;10.0.0.7" style="text;html=1;strokeColor=none;fillColor=none;align=center;verticalAlign=middle;whiteSpace=wrap;rounded=0;" vertex="1" parent="1">
          <mxGeometry x="518" y="-50" width="90" height="20" as="geometry" />
        </mxCell>
        <mxCell id="MUji5N--3h-qAHqWKQlx-17" value="Web-1&lt;br&gt;10.0.0.5" style="text;html=1;strokeColor=none;fillColor=none;align=center;verticalAlign=middle;whiteSpace=wrap;rounded=0;" vertex="1" parent="1">
          <mxGeometry x="220" y="-50" width="90" height="20" as="geometry" />
        </mxCell>
        <mxCell id="MUji5N--3h-qAHqWKQlx-18" value="Azure Security Group" style="text;html=1;strokeColor=none;fillColor=none;align=center;verticalAlign=middle;whiteSpace=wrap;rounded=0;" vertex="1" parent="1">
          <mxGeometry x="356.25" y="-235" width="122.5" height="20" as="geometry" />
        </mxCell>
        <mxCell id="MUji5N--3h-qAHqWKQlx-19" value="Jump-Box VM Ansible" style="text;html=1;strokeColor=none;fillColor=none;align=center;verticalAlign=middle;whiteSpace=wrap;rounded=0;" vertex="1" parent="1">
          <mxGeometry x="519" y="-247.5" width="132" height="37.5" as="geometry" />
        </mxCell>
        <mxCell id="MUji5N--3h-qAHqWKQlx-50" value="" style="endArrow=none;html=1;" edge="1" parent="1" source="MUji5N--3h-qAHqWKQlx-3" target="MUji5N--3h-qAHqWKQlx-2">
          <mxGeometry width="50" height="50" relative="1" as="geometry">
            <mxPoint x="418" y="-360" as="sourcePoint" />
            <mxPoint x="420" y="-430" as="targetPoint" />
          </mxGeometry>
        </mxCell>
        <mxCell id="MUji5N--3h-qAHqWKQlx-51" value="" style="endArrow=none;html=1;" edge="1" parent="1">
          <mxGeometry width="50" height="50" relative="1" as="geometry">
            <mxPoint x="269" y="-490" as="sourcePoint" />
            <mxPoint x="349" y="-490" as="targetPoint" />
          </mxGeometry>
        </mxCell>
        <mxCell id="MUji5N--3h-qAHqWKQlx-53" value="" style="endArrow=none;html=1;entryX=0.006;entryY=0.71;entryDx=0;entryDy=0;entryPerimeter=0;" edge="1" parent="1">
          <mxGeometry width="50" height="50" relative="1" as="geometry">
            <mxPoint x="476" y="-313.46291901512905" as="sourcePoint" />
            <mxPoint x="519.6300000000001" y="-303.95000000000005" as="targetPoint" />
            <Array as="points">
              <mxPoint x="540" y="-300" />
            </Array>
          </mxGeometry>
        </mxCell>
        <mxCell id="MUji5N--3h-qAHqWKQlx-54" value="" style="endArrow=none;html=1;" edge="1" parent="1" source="MUji5N--3h-qAHqWKQlx-4">
          <mxGeometry width="50" height="50" relative="1" as="geometry">
            <mxPoint x="330" y="-304" as="sourcePoint" />
            <mxPoint x="360" y="-314" as="targetPoint" />
          </mxGeometry>
        </mxCell>
        <mxCell id="MUji5N--3h-qAHqWKQlx-56" value="" style="endArrow=none;html=1;exitX=0.965;exitY=0.614;exitDx=0;exitDy=0;exitPerimeter=0;" edge="1" parent="1" source="MUji5N--3h-qAHqWKQlx-42">
          <mxGeometry width="50" height="50" relative="1" as="geometry">
            <mxPoint x="680" y="-150" as="sourcePoint" />
            <mxPoint x="690" y="-307" as="targetPoint" />
            <Array as="points">
              <mxPoint x="690" />
            </Array>
          </mxGeometry>
        </mxCell>
        <mxCell id="MUji5N--3h-qAHqWKQlx-57" value="" style="endArrow=none;html=1;" edge="1" parent="1">
          <mxGeometry width="50" height="50" relative="1" as="geometry">
            <mxPoint x="630" y="-307" as="sourcePoint" />
            <mxPoint x="690" y="-307" as="targetPoint" />
          </mxGeometry>
        </mxCell>
        <mxCell id="MUji5N--3h-qAHqWKQlx-55" value="" style="endArrow=none;html=1;" edge="1" parent="1">
          <mxGeometry width="50" height="50" relative="1" as="geometry">
            <mxPoint x="260" y="-6" as="sourcePoint" />
            <mxPoint x="690" y="-6" as="targetPoint" />
          </mxGeometry>
        </mxCell>
        <mxCell id="MUji5N--3h-qAHqWKQlx-60" value="" style="endArrow=none;html=1;" edge="1" parent="1">
          <mxGeometry width="50" height="50" relative="1" as="geometry">
            <mxPoint x="261" y="-180" as="sourcePoint" />
            <mxPoint x="261" y="-282" as="targetPoint" />
          </mxGeometry>
        </mxCell>
        <mxCell id="MUji5N--3h-qAHqWKQlx-61" value="" style="endArrow=none;html=1;" edge="1" parent="1">
          <mxGeometry width="50" height="50" relative="1" as="geometry">
            <mxPoint x="261" y="-185" as="sourcePoint" />
            <mxPoint x="334" y="-185" as="targetPoint" />
            <Array as="points">
              <mxPoint x="570" y="-185" />
            </Array>
          </mxGeometry>
        </mxCell>
        <mxCell id="MUji5N--3h-qAHqWKQlx-63" value="" style="endArrow=classic;html=1;" edge="1" parent="1">
          <mxGeometry width="50" height="50" relative="1" as="geometry">
            <mxPoint x="260" y="-6" as="sourcePoint" />
            <mxPoint x="260" y="-26" as="targetPoint" />
          </mxGeometry>
        </mxCell>
        <mxCell id="MUji5N--3h-qAHqWKQlx-64" value="" style="endArrow=classic;html=1;" edge="1" parent="1">
          <mxGeometry width="50" height="50" relative="1" as="geometry">
            <mxPoint x="416" y="-6" as="sourcePoint" />
            <mxPoint x="416" y="-26" as="targetPoint" />
          </mxGeometry>
        </mxCell>
        <mxCell id="MUji5N--3h-qAHqWKQlx-65" value="" style="endArrow=classic;html=1;" edge="1" parent="1">
          <mxGeometry width="50" height="50" relative="1" as="geometry">
            <mxPoint x="565" y="-6" as="sourcePoint" />
            <mxPoint x="565" y="-26" as="targetPoint" />
          </mxGeometry>
        </mxCell>
        <mxCell id="MUji5N--3h-qAHqWKQlx-66" value="" style="endArrow=classic;html=1;" edge="1" parent="1">
          <mxGeometry width="50" height="50" relative="1" as="geometry">
            <mxPoint x="261" y="-185" as="sourcePoint" />
            <mxPoint x="261" y="-165" as="targetPoint" />
          </mxGeometry>
        </mxCell>
        <mxCell id="MUji5N--3h-qAHqWKQlx-67" value="" style="endArrow=classic;html=1;" edge="1" parent="1">
          <mxGeometry width="50" height="50" relative="1" as="geometry">
            <mxPoint x="412" y="-185" as="sourcePoint" />
            <mxPoint x="412" y="-165" as="targetPoint" />
          </mxGeometry>
        </mxCell>
        <mxCell id="MUji5N--3h-qAHqWKQlx-68" value="" style="endArrow=classic;html=1;" edge="1" parent="1">
          <mxGeometry width="50" height="50" relative="1" as="geometry">
            <mxPoint x="565" y="-185" as="sourcePoint" />
            <mxPoint x="565" y="-165" as="targetPoint" />
          </mxGeometry>
        </mxCell>
        <mxCell id="MUji5N--3h-qAHqWKQlx-69" value="&lt;font style=&quot;font-size: 14px&quot;&gt;Azure Resource Group&lt;/font&gt;" style="text;html=1;strokeColor=none;fillColor=none;align=center;verticalAlign=middle;whiteSpace=wrap;rounded=0;shadow=1;opacity=30;" vertex="1" parent="1">
          <mxGeometry x="550" y="-450" width="180" height="30" as="geometry" />
        </mxCell>
        <mxCell id="MUji5N--3h-qAHqWKQlx-70" value="&lt;font style=&quot;font-size: 14px&quot;&gt;Azure Virtutal Network&lt;/font&gt;" style="text;html=1;strokeColor=none;fillColor=none;align=center;verticalAlign=middle;whiteSpace=wrap;rounded=0;shadow=1;opacity=30;" vertex="1" parent="1">
          <mxGeometry x="523" y="-415" width="210" height="21" as="geometry" />
        </mxCell>
        <mxCell id="MUji5N--3h-qAHqWKQlx-71" value="&lt;font style=&quot;font-size: 14px&quot;&gt;Azure Virtual Subnet&amp;nbsp;&lt;/font&gt;" style="text;html=1;strokeColor=none;fillColor=none;align=center;verticalAlign=middle;whiteSpace=wrap;rounded=0;shadow=1;opacity=30;" vertex="1" parent="1">
          <mxGeometry x="562" y="-385" width="144" height="21" as="geometry" />
        </mxCell>
        <mxCell id="MUji5N--3h-qAHqWKQlx-72" value="Text" style="text;html=1;strokeColor=none;fillColor=none;align=center;verticalAlign=middle;whiteSpace=wrap;rounded=0;shadow=1;opacity=30;" vertex="1" parent="1">
          <mxGeometry x="320" y="-60" width="40" height="20" as="geometry" />
        </mxCell>
        <mxCell id="MUji5N--3h-qAHqWKQlx-73" value="Text" style="text;html=1;strokeColor=none;fillColor=none;align=center;verticalAlign=middle;whiteSpace=wrap;rounded=0;shadow=1;opacity=30;" vertex="1" parent="1">
          <mxGeometry x="470" y="-50" width="40" height="20" as="geometry" />
        </mxCell>
        <mxCell id="MUji5N--3h-qAHqWKQlx-74" value="HTTP&amp;nbsp;&lt;br&gt;(p 80)" style="text;html=1;strokeColor=none;fillColor=none;align=center;verticalAlign=middle;whiteSpace=wrap;rounded=0;shadow=1;opacity=30;" vertex="1" parent="1">
          <mxGeometry x="300" y="-335" width="40" height="20" as="geometry" />
        </mxCell>
        <mxCell id="MUji5N--3h-qAHqWKQlx-75" value="SSH" style="text;html=1;strokeColor=none;fillColor=none;align=center;verticalAlign=middle;whiteSpace=wrap;rounded=0;shadow=1;opacity=30;" vertex="1" parent="1">
          <mxGeometry x="487" y="-327" width="40" height="20" as="geometry" />
        </mxCell>
      </root>
    </mxGraphModel>
  </diagram>
</mxfile>
